<?xml version="1.0" standalone="no"?>
<!DOCTYPE svg PUBLIC "-//W3C//DTD SVG 20010904//EN"
 "http://www.w3.org/TR/2001/REC-SVG-20010904/DTD/svg10.dtd">
<svg version="1.0" xmlns="http://www.w3.org/2000/svg"
 width="300.000000pt" height="300.000000pt" viewBox="0 0 300.000000 300.000000"
 preserveAspectRatio="xMidYMid meet">
<metadata>
Created by potrace 1.10, written by Peter Selinger 2001-2011
</metadata>
<g transform="translate(0.000000,300.000000) scale(0.100000,-0.100000)"
fill="#0000ff" stroke="none">
<path d="M973 2974 c-233 -51 -429 -159 -604 -333 -220 -219 -362 -521 -358
-764 1 -70 6 -57 28 83 36 216 148 456 280 599 23 24 41 48 41 53 0 20 29 5
68 -35 l43 -44 -40 -42 c-61 -67 -67 -74 -125 -173 -100 -167 -146 -327 -152
-528 -3 -104 0 -143 20 -230 33 -150 88 -281 169 -404 53 -81 179 -204 280
-274 85 -60 237 -132 307 -147 19 -4 39 -10 45 -13 5 -3 16 -7 25 -8 8 -1 58
-7 110 -14 114 -15 240 -7 363 21 49 12 94 22 100 23 7 1 51 21 100 43 48 23
90 42 94 42 3 -1 9 4 12 9 3 5 32 26 64 46 32 21 79 57 105 82 l46 45 50 -50
49 -49 -36 -32 c-59 -51 -167 -129 -190 -136 -12 -4 -24 -10 -27 -13 -11 -16
-133 -72 -206 -96 -156 -51 -139 -47 -289 -66 -185 -24 -456 24 -635 112 -66
32 -220 129 -220 138 0 4 -11 14 -25 21 -14 7 -25 20 -25 27 0 8 -4 12 -9 9
-9 -6 -113 100 -167 170 -16 21 -51 76 -77 121 -87 153 -128 279 -166 513 l-9
55 -1 -67 c-3 -170 74 -393 205 -595 52 -80 244 -269 332 -327 380 -248 836
-274 1239 -71 l108 54 365 -364 365 -365 188 187 187 188 -365 365 -364 365
54 108 c92 182 132 344 134 548 6 471 -267 910 -694 1115 -146 70 -273 105
-395 110 -102 3 -94 0 65 -29 313 -57 576 -218 759 -465 129 -173 218 -396
233 -582 21 -261 -9 -447 -108 -659 -23 -50 -46 -91 -50 -91 -5 0 -9 -6 -9
-13 0 -27 -139 -217 -159 -217 -10 0 -91 76 -91 86 0 4 9 17 20 29 75 75 165
223 209 343 52 141 66 223 65 387 0 167 -17 256 -74 400 -26 66 -91 186 -110
205 -3 3 -18 23 -33 46 -38 56 -147 159 -237 225 -302 220 -724 258 -1079 98
-51 -24 -167 -95 -196 -121 -61 -54 -89 -78 -95 -78 -3 0 -23 18 -44 39 -41
42 -41 50 4 88 14 12 41 36 60 52 47 40 209 132 291 164 72 29 188 58 314 80
l80 14 -75 1 c-41 0 -103 -6 -137 -14z m542 -188 c286 -85 514 -269 647 -523
61 -116 95 -222 115 -363 14 -98 15 -131 5 -221 -17 -146 -45 -247 -102 -365
-163 -336 -482 -558 -851 -593 -513 -48 -981 280 -1121 787 -18 65 -22 106
-22 257 -1 158 2 190 22 264 108 396 411 687 808 775 51 12 113 15 239 12 150
-3 181 -6 260 -30z m757 -1707 c2 -5 159 -166 350 -357 l347 -347 -76 -78
c-42 -42 -79 -77 -84 -77 -5 0 -164 155 -354 345 l-347 346 49 52 c26 29 59
70 73 90 26 38 36 44 42 26z m181 -527 l349 -349 -88 -86 -89 -87 -346 347
c-191 191 -354 350 -363 353 -13 4 -1 17 46 52 35 25 79 62 97 82 19 20 37 36
41 36 3 0 162 -157 353 -348z"/>
<path d="M1098 2544 c-68 -16 -128 -45 -180 -86 l-38 -30 0 -109 0 -109 -175
0 -175 0 0 -530 0 -530 700 0 700 1 2 529 3 530 -177 0 -178 0 0 109 0 109
-37 30 c-115 90 -290 124 -445 86z m262 -25 c25 -7 50 -15 55 -19 6 -4 21 -10
35 -13 14 -4 44 -22 66 -41 l41 -35 -1 -93 -1 -93 -60 0 -60 0 -3 63 c-3 73
-15 84 -109 109 -75 20 -181 11 -243 -20 l-45 -22 -3 -60 c-2 -33 -8 -62 -14
-66 -5 -3 -33 -6 -61 -5 l-52 1 -1 93 -1 93 39 33 c91 78 276 111 418 75z m20
-164 c29 -15 30 -19 30 -80 l0 -65 -180 0 -180 0 0 66 0 65 38 16 c77 33 227
32 292 -2z m-322 -161 c14 -14 36 -16 181 -9 91 3 170 11 175 16 13 12 149 12
162 0 5 -6 78 -12 163 -16 84 -3 157 -7 161 -10 4 -2 7 -70 8 -150 0 -80 4
-150 8 -156 5 -9 -91 -11 -381 -7 l-387 5 -154 154 c-84 84 -151 156 -148 161
3 5 9 6 14 3 4 -3 13 2 20 10 18 22 155 21 178 -1z m-75 -172 l162 -162 88 0
87 0 0 -90 0 -90 -90 0 -90 0 0 90 c0 50 -3 89 -7 89 -5 -1 -138 -1 -298 0
l-290 1 3 159 c3 139 5 160 19 163 10 2 70 3 136 2 l118 0 162 -162z m104
-178 l41 -5 1 -81 c0 -45 4 -84 7 -87 3 -3 50 -5 103 -4 l98 1 243 -243 c134
-135 242 -246 240 -247 -3 -2 -289 -2 -637 0 l-631 2 -1 330 -2 329 48 3 c93
6 449 8 490 2z m794 -3 l25 -1 1 -330 1 -330 -32 0 c-29 0 -60 27 -284 251
l-252 252 0 79 c0 46 4 77 9 73 5 -3 12 -2 14 2 4 6 295 8 518 4z"/>
<path d="M1220 1787 c52 -54 60 -62 60 -54 0 6 -63 69 -91 92 -13 10 1 -6 31
-38z"/>
<path d="M555 2450 c21 -22 41 -40 44 -40 3 0 -13 18 -34 40 -21 22 -41 40
-44 40 -3 0 13 -18 34 -40z"/>
<path d="M655 2350 c27 -27 51 -50 54 -50 3 0 -17 23 -44 50 -27 28 -51 50
-54 50 -3 0 17 -22 44 -50z"/>
<path d="M740 2265 c13 -14 26 -25 28 -25 3 0 -5 11 -18 25 -13 14 -26 25 -28
25 -3 0 5 -11 18 -25z"/>
<path d="M1900 1107 c0 -2 15 -16 33 -33 l32 -29 -29 33 c-28 30 -36 37 -36
29z"/>
</g>
</svg>
